<svg xmlns="http://www.w3.org/2000/svg" xmlns:xlink="http://www.w3.org/1999/xlink" width="170" height="170" viewBox="0 0 170 170"><defs><style>.a{fill:rgba(188,97,204,0.08);}.b{fill:url(#a);}</style><linearGradient id="a" x1="1" x2="0" y2="1" gradientUnits="objectBoundingBox"><stop offset="0" stop-color="#bc61cc"/><stop offset="1" stop-color="#5e3166"/></linearGradient></defs><g transform="translate(-635 -889)"><circle class="a" cx="85" cy="85" r="85" transform="translate(635 889)"/><g transform="translate(691 949.714)"><path class="b" d="M-1035.163-1039.7a4.844,4.844,0,0,1-4.837-4.838v-31.516h58.05v31.516a4.843,4.843,0,0,1-4.837,4.838Zm24.971-29.539-4.138,19.648a1.026,1.026,0,0,0,.792,1.216,1.026,1.026,0,0,0,1.216-.793l4.138-19.648a1.026,1.026,0,0,0-.793-1.216,1.031,1.031,0,0,0-.213-.022A1.026,1.026,0,0,0-1010.192-1069.234Zm4.99,3.645a1.027,1.027,0,0,0,.116,1.447l5.721,4.873-5.721,4.874a1.026,1.026,0,0,0-.116,1.446,1.027,1.027,0,0,0,1.447.115l6.639-5.654a1.026,1.026,0,0,0,.361-.781,1.028,1.028,0,0,0-.361-.781l-6.639-5.654a1.023,1.023,0,0,0-.666-.245A1.024,1.024,0,0,0-1005.2-1065.589Zm-12.992-.115-6.639,5.654h0a1.025,1.025,0,0,0-.361.781,1.023,1.023,0,0,0,.361.781l6.639,5.654a1.026,1.026,0,0,0,1.446-.115,1.026,1.026,0,0,0-.115-1.446l-5.723-4.874,5.722-4.873a1.027,1.027,0,0,0,.116-1.447,1.024,1.024,0,0,0-.782-.361A1.023,1.023,0,0,0-1018.194-1065.7ZM-1040-1078.1v-7.49a4.843,4.843,0,0,1,4.837-4.838h48.375a4.843,4.843,0,0,1,4.837,4.838v7.49Zm22.227-6.08a3.248,3.248,0,0,0,3.221,3.253h.01a3.247,3.247,0,0,0,3.247-3.236,3.249,3.249,0,0,0-3.236-3.258h-.01A3.248,3.248,0,0,0-1017.773-1084.181Zm-9.946-.031a3.248,3.248,0,0,0,3.189,3.253h.011a3.251,3.251,0,0,0,3.247-3.237,3.25,3.25,0,0,0-3.237-3.256h-.011A3.246,3.246,0,0,0-1027.719-1084.212Zm-10.035-.034a3.252,3.252,0,0,0,3.246,3.255h.011a3.252,3.252,0,0,0,3.247-3.255,3.252,3.252,0,0,0-3.253-3.25A3.251,3.251,0,0,0-1037.754-1084.246Zm23.208,1.265a1.194,1.194,0,0,1-1.18-1.2,1.2,1.2,0,0,1,1.183-1.193h0a1.2,1.2,0,0,1,1.181,1.2,1.2,1.2,0,0,1-1.184,1.193Zm-9.978-.032a1.193,1.193,0,0,1-1.16-1.2,1.2,1.2,0,0,1,1.164-1.193h0a1.2,1.2,0,0,1,1.161,1.2,1.2,1.2,0,0,1-1.165,1.193Zm-9.976-.031a1.194,1.194,0,0,1-1.166-1.2,1.193,1.193,0,0,1,1.17-1.193h0a1.2,1.2,0,0,1,1.167,1.2,1.2,1.2,0,0,1-1.171,1.193Z" transform="translate(1040 1090.428)"/></g></g></svg>