<svg xmlns="http://www.w3.org/2000/svg" xmlns:xlink="http://www.w3.org/1999/xlink" width="170" height="170" viewBox="0 0 170 170"><defs><style>.a{fill:rgba(65,203,18,0.08);}.b{fill:url(#a);}</style><linearGradient id="a" x1="1.146" x2="0" y2="1.135" gradientUnits="objectBoundingBox"><stop offset="0" stop-color="#79ff4b"/><stop offset="1" stop-color="#2d8d0b"/></linearGradient></defs><g transform="translate(-1085 -890)"><circle class="a" cx="85" cy="85" r="85" transform="translate(1085 890)"/><g transform="translate(1150 950)"><path class="b" d="M230.481,108.4H229v36.26a4.381,4.381,0,0,1-4.382,4.37H197.7v1.344a2.793,2.793,0,0,0,2.8,2.788h29.979a2.793,2.793,0,0,0,2.8-2.788V111.188A2.789,2.789,0,0,0,230.481,108.4Z" transform="translate(-192.346 -103.162)"/><path class="b" d="M104.681,44.762h14.99a2.793,2.793,0,0,0,2.8-2.788V2.788A2.793,2.793,0,0,0,119.671,0H99.7V.922a2.7,2.7,0,0,1,.016.3V8.855a3.935,3.935,0,0,1-3.938,3.927H88.116c-.079,0-.164-.005-.243-.011H86.9v29.2a2.793,2.793,0,0,0,2.8,2.788h14.985Zm.566-9.477H95.473a1.318,1.318,0,1,1,0-2.636h9.778a1.318,1.318,0,1,1-.005,2.636Zm9.778-6.726H95.473a1.318,1.318,0,1,1,0-2.636h19.551a1.318,1.318,0,1,1,0,2.636ZM95.473,18.781h19.551a1.318,1.318,0,1,1,0,2.636H95.473a1.318,1.318,0,1,1,0-2.636Z" transform="translate(-86.9)"/><path class="b" d="M88.626,11.029h7.021A2.145,2.145,0,0,0,97.773,8.9V1.878A1.076,1.076,0,0,0,96.691.8a1.047,1.047,0,0,0-.754.319L87.863,9.193A1.076,1.076,0,0,0,88.626,11.029Z" transform="translate(-87.515 -0.761)"/></g></g></svg>