<svg xmlns="http://www.w3.org/2000/svg" width="23.975" height="18.837" viewBox="0 0 23.975 18.837"><defs><style>.a{fill:#343434;}</style></defs><path class="a" d="M2.141,18.837a2.047,2.047,0,0,1-1.4-.529l6.793-6.794c.17.122.328.236.469.34q.763.562,1.238.876a7.648,7.648,0,0,0,1.264.643,3.854,3.854,0,0,0,1.472.328H12a3.854,3.854,0,0,0,1.472-.328,7.648,7.648,0,0,0,1.264-.643q.475-.315,1.238-.876l.471-.338,6.792,6.792a2.047,2.047,0,0,1-1.4.529ZM17.99,10.424Q19.9,9.087,22.637,7.238a7.376,7.376,0,0,0,1.338-1.164V16.409ZM0,6.074A7.061,7.061,0,0,0,1.352,7.238Q4.194,9.17,5.987,10.422L0,16.409Zm11.988,5.913h-.013a2.125,2.125,0,0,1-.669-.12,4,4,0,0,1-.769-.362q-.409-.24-.7-.435t-.723-.509L8.749,10.3c-.089-.064-.157-.112-.2-.142-.373-.263-.826-.58-1.35-.945-.616-.429-1.332-.926-2.155-1.5Q2.757,6.128,2.3,5.806A6.63,6.63,0,0,1,.736,4.261,3.127,3.127,0,0,1,0,2.434,2.7,2.7,0,0,1,.555.7,1.911,1.911,0,0,1,2.141,0H21.834A2.069,2.069,0,0,1,23.34.629a2.052,2.052,0,0,1,.635,1.512,3.545,3.545,0,0,1-.655,2.02,6.36,6.36,0,0,1-1.633,1.645L16.781,9.213l-1.354.941c-.043.03-.111.078-.2.142l-.369.266q-.435.315-.722.509c-.193.13-.424.274-.7.435a4.017,4.017,0,0,1-.769.362,2.134,2.134,0,0,1-.67.12Z"/></svg>