<svg xmlns="http://www.w3.org/2000/svg" width="131" height="39.957" viewBox="0 0 131 39.957"><defs><style>.a{fill:#46c700;}.b{fill:rgba(0,0,0,0.1);}.c{fill:#bc61cc;}.d{fill:#2f251b;}.e{fill:#e55f25;}.f{fill:#1a072e;}</style></defs><g transform="translate(-37.315 -6.92)"><g transform="translate(37.315 6.92)"><g transform="translate(10.432 22.131)"><path class="a" d="M62.448,21.113v7.87c0,2.336-.922,9.956-9.222,9.956H44V35.207h0a2.464,2.464,0,0,1,2.046-2.387,1.736,1.736,0,0,1,.268-.027h3.828a.117.117,0,0,1,.033,0c2.852-.239,6.064,0,6.117-6.607V23.531h0a2.469,2.469,0,0,1,2.043-2.39,2.6,2.6,0,0,1,.312-.028h3.789Z" transform="translate(-44.005 -21.113)"/><path class="b" d="M61.488,21.113h-.062a1.99,1.99,0,0,0-.307.031,2.461,2.461,0,0,0-2.046,2.387l0,1.438v3.937c-.053,6.607-6.031,6.368-8.883,6.607a.122.122,0,0,0-.033,0H46.327a1.95,1.95,0,0,0-.271.027A2.467,2.467,0,0,0,44.01,37.93h0V35.207h0a2.467,2.467,0,0,1,2.046-2.387,1.739,1.739,0,0,1,.271-.027h3.825a.122.122,0,0,1,.033,0c2.852-.239,6.064,0,6.117-6.607V23.531h0a2.462,2.462,0,0,1,2.046-2.387,2.01,2.01,0,0,1,.307-.031h2.83Z" transform="translate(-44.005 -21.113)"/></g><g transform="translate(0 11.679)"><path class="c" d="M55.758,31.009H51.214c-4.338-.092-13.9,1.154-13.9-7.377V14.41h3.733a2.458,2.458,0,0,1,2.415,2.448V20.7c0,1.673.338,3.859,5.071,4.137.329.017.68.03,1.053.03H53.4a2.052,2.052,0,0,1,.312.028,2.463,2.463,0,0,1,1.645,1.084,2.43,2.43,0,0,1,.385,1.277Z" transform="translate(-37.315 -14.41)"/><path class="b" d="M55.264,31.009h-.009V30a2.433,2.433,0,0,0-2.035-2.359,2.5,2.5,0,0,0-.307-.031h-6.17q-.559,0-1.054-.028c-4.732-.276-5.071-2.464-5.071-4.135V16.858A2.457,2.457,0,0,0,38.2,14.41h2.35a2.458,2.458,0,0,1,2.415,2.448V20.7c0,1.673.338,3.859,5.071,4.137.331.017.68.03,1.056.03h3.817a2.086,2.086,0,0,1,.31.028,2.434,2.434,0,0,1,2.032,2.361Z" transform="translate(-36.818 -14.41)"/></g><path class="d" d="M46.694,21.114h-.65v0h.588A.429.429,0,0,1,46.694,21.114Z" transform="translate(-32.433 1.017)"/><g transform="translate(10.432)"><path class="e" d="M62.448,24.746H44V20.893a2.466,2.466,0,0,1,2.043-2.263,1.572,1.572,0,0,1,.27-.031H56.3c0-5.719-6.15-5.531-6.15-5.531H44V9.338h0a1.016,1.016,0,0,1,0-.122,2.47,2.47,0,0,1,2.04-2.27,2.289,2.289,0,0,1,.27-.027h6.469a9.655,9.655,0,0,1,9.629,9.654Z" transform="translate(-44.005 -6.92)"/><path class="b" d="M59.068,17.423v3.14H46.592A2.382,2.382,0,0,0,44,22.951V19.717a2.466,2.466,0,0,1,2.043-2.263,1.572,1.572,0,0,1,.27-.031H56.3c0-5.719-6.15-5.531-6.15-5.531H44c0-3.27,2.587-2.853,2.587-2.853H50.9C59.621,9.039,59.068,17.423,59.068,17.423Z" transform="translate(-44.005 -5.744)"/></g></g><g transform="translate(76.163 12.633)"><path class="f" d="M62.517,25.541a1.068,1.068,0,0,1-.288-.789V11.665a1.068,1.068,0,0,1,.288-.789,1.1,1.1,0,0,1,.812-.292h7.96a1.156,1.156,0,0,1,.769.237.865.865,0,0,1,.268.67.823.823,0,0,1-.268.661,1.18,1.18,0,0,1-.769.228H64.412v4.8h6.446a1.117,1.117,0,0,1,.766.239.962.962,0,0,1,0,1.339,1.1,1.1,0,0,1-.766.24H64.412v5.038H71.29c.691,0,1.037.3,1.037.889a.861.861,0,0,1-.268.67,1.139,1.139,0,0,1-.769.237H63.33A1.1,1.1,0,0,1,62.517,25.541Z" transform="translate(-62.229 -10.584)"/><path class="f" d="M85.833,17.688v5.626a.979.979,0,0,1-.3.767,1.154,1.154,0,0,1-.8.268,1.127,1.127,0,0,1-.778-.268.976.976,0,0,1-.306-.767v-5.6a3.076,3.076,0,0,0-.472-1.913,1.8,1.8,0,0,0-1.5-.594,2.337,2.337,0,0,0-1.879.811,3.31,3.31,0,0,0-.7,2.217v5.083a.976.976,0,0,1-.3.767,1.169,1.169,0,0,1-.8.268,1.129,1.129,0,0,1-.778-.268.979.979,0,0,1-.3-.767v-5.6a3.075,3.075,0,0,0-.476-1.913,1.8,1.8,0,0,0-1.492-.594,2.371,2.371,0,0,0-1.891.811,3.271,3.271,0,0,0-.7,2.217v5.083a.976.976,0,0,1-.306.767,1.129,1.129,0,0,1-.778.268,1.179,1.179,0,0,1-.791-.268.959.959,0,0,1-.312-.767V14.509a.943.943,0,0,1,.324-.755,1.145,1.145,0,0,1,.778-.284,1.053,1.053,0,0,1,.745.271.965.965,0,0,1,.295.745v.8A3.3,3.3,0,0,1,73.636,13.9a3.9,3.9,0,0,1,1.946-.474,3.665,3.665,0,0,1,2,.5,2.964,2.964,0,0,1,1.179,1.531,3.6,3.6,0,0,1,1.4-1.48,4.1,4.1,0,0,1,2.118-.55Q85.834,13.428,85.833,17.688Z" transform="translate(-57.784 -8.993)"/><path class="f" d="M89.823,14.487a4.483,4.483,0,0,1,1.024,3.223v5.6a1.017,1.017,0,0,1-.281.767,1.084,1.084,0,0,1-.78.268.967.967,0,0,1-1.037-1.035v-.8a3.062,3.062,0,0,1-1.219,1.394,3.612,3.612,0,0,1-1.895.488,4.244,4.244,0,0,1-1.9-.424,3.242,3.242,0,0,1-1.35-1.177,3.045,3.045,0,0,1-.485-1.687,2.612,2.612,0,0,1,.591-1.807,3.564,3.564,0,0,1,1.969-.94,19.67,19.67,0,0,1,3.773-.281h.5v-.627a2.541,2.541,0,0,0-.5-1.754,2.092,2.092,0,0,0-1.6-.54,5.154,5.154,0,0,0-1.427.195,10.251,10.251,0,0,0-1.472.563,2.105,2.105,0,0,1-.82.323.65.65,0,0,1-.53-.237.889.889,0,0,1-.207-.607.943.943,0,0,1,.184-.572,1.993,1.993,0,0,1,.6-.486,7.244,7.244,0,0,1,1.771-.658,8.3,8.3,0,0,1,1.968-.249A4.177,4.177,0,0,1,89.823,14.487ZM87.972,21.96a2.937,2.937,0,0,0,.756-2.088v-.561h-.39a16.867,16.867,0,0,0-2.595.15,2.526,2.526,0,0,0-1.3.511A1.307,1.307,0,0,0,84.058,21a1.618,1.618,0,0,0,.561,1.277,2.039,2.039,0,0,0,1.4.5A2.552,2.552,0,0,0,87.972,21.96Z" transform="translate(-51.229 -8.993)"/><path class="f" d="M97.874,13.62a1.021,1.021,0,0,1,.53-.151,1.055,1.055,0,0,1,.727.282.868.868,0,0,1,.312.67,1.034,1.034,0,0,1-.084.412l-6.014,12.76a1.021,1.021,0,0,1-.376.466.959.959,0,0,1-.532.159,1.072,1.072,0,0,1-.7-.256.813.813,0,0,1-.315-.649,1.288,1.288,0,0,1,.108-.437L93.02,23.7l-4.176-8.868a.882.882,0,0,1-.083-.39.855.855,0,0,1,.345-.692,1.2,1.2,0,0,1,.777-.282.967.967,0,0,1,.932.605l3.352,7.441L97.5,14.1A.949.949,0,0,1,97.874,13.62Z" transform="translate(-47.39 -8.97)"/><path class="f" d="M105.088,13.62a1.006,1.006,0,0,1,.527-.151,1.059,1.059,0,0,1,.728.282.876.876,0,0,1,.31.67,1.01,1.01,0,0,1-.086.412l-6.008,12.76a1.074,1.074,0,0,1-.382.466.949.949,0,0,1-.529.159,1.066,1.066,0,0,1-.7-.256.807.807,0,0,1-.313-.649,1.186,1.186,0,0,1,.108-.437l1.492-3.176-4.176-8.868a.9.9,0,0,1,.26-1.082,1.2,1.2,0,0,1,.775-.282.963.963,0,0,1,.934.605l3.352,7.441,3.332-7.419A.948.948,0,0,1,105.088,13.62Z" transform="translate(-43.355 -8.97)"/><path class="f" d="M111.559,14.487a4.483,4.483,0,0,1,1.024,3.223v5.6a1.007,1.007,0,0,1-.284.767,1.069,1.069,0,0,1-.78.268.969.969,0,0,1-1.035-1.035v-.8a3.056,3.056,0,0,1-1.221,1.394,3.592,3.592,0,0,1-1.895.488,4.245,4.245,0,0,1-1.9-.424,3.218,3.218,0,0,1-1.352-1.177,3.059,3.059,0,0,1-.487-1.687,2.607,2.607,0,0,1,.6-1.807,3.553,3.553,0,0,1,1.966-.94,19.7,19.7,0,0,1,3.775-.281h.5v-.627a2.557,2.557,0,0,0-.5-1.754,2.094,2.094,0,0,0-1.6-.54,5.182,5.182,0,0,0-1.428.195,10.38,10.38,0,0,0-1.47.563,2.1,2.1,0,0,1-.822.323.652.652,0,0,1-.53-.237.88.88,0,0,1-.2-.607.924.924,0,0,1,.184-.572,1.983,1.983,0,0,1,.6-.486,7.268,7.268,0,0,1,1.768-.658,8.335,8.335,0,0,1,1.971-.249A4.187,4.187,0,0,1,111.559,14.487Zm-1.852,7.474a2.938,2.938,0,0,0,.758-2.088v-.561h-.388a16.835,16.835,0,0,0-2.6.15,2.52,2.52,0,0,0-1.3.511A1.317,1.317,0,0,0,105.8,21a1.626,1.626,0,0,0,.558,1.277,2.04,2.04,0,0,0,1.406.5A2.548,2.548,0,0,0,109.707,21.96Z" transform="translate(-39.074 -8.993)"/><path class="f" d="M126.944,17.688v5.626a.969.969,0,0,1-.3.767,1.158,1.158,0,0,1-.8.268,1.12,1.12,0,0,1-.777-.268.976.976,0,0,1-.307-.767v-5.6a3.086,3.086,0,0,0-.474-1.913,1.8,1.8,0,0,0-1.492-.594,2.339,2.339,0,0,0-1.882.811,3.3,3.3,0,0,0-.689,2.217v5.083a.977.977,0,0,1-.307.767,1.155,1.155,0,0,1-.8.268,1.127,1.127,0,0,1-.781-.268.969.969,0,0,1-.3-.767v-5.6a3.064,3.064,0,0,0-.476-1.913,1.794,1.794,0,0,0-1.492-.594,2.369,2.369,0,0,0-1.891.811,3.272,3.272,0,0,0-.7,2.217v5.083a.978.978,0,0,1-.3.767,1.14,1.14,0,0,1-.781.268,1.169,1.169,0,0,1-.789-.268.96.96,0,0,1-.313-.767V14.509a.951.951,0,0,1,.323-.755,1.155,1.155,0,0,1,.78-.284,1.057,1.057,0,0,1,.747.271.963.963,0,0,1,.292.745v.8a3.314,3.314,0,0,1,1.319-1.386,3.9,3.9,0,0,1,1.948-.474,3.659,3.659,0,0,1,2,.5,2.949,2.949,0,0,1,1.179,1.531,3.608,3.608,0,0,1,1.408-1.48,4.1,4.1,0,0,1,2.119-.55Q126.944,13.428,126.944,17.688Z" transform="translate(-34.792 -8.993)"/><g transform="translate(61.115 22.232)"><path class="f" d="M101.546,31a.46.46,0,0,1-.123-.335V25.3a.467.467,0,0,1,.123-.332.505.505,0,0,1,.661,0,.454.454,0,0,1,.122.335v5.365a.417.417,0,0,1-.457.457A.455.455,0,0,1,101.546,31Z" transform="translate(-101.423 -24.842)"/><path class="f" d="M106.709,27.756V30.04a.4.4,0,0,1-.119.31.466.466,0,0,1-.332.109.426.426,0,0,1-.315-.112.4.4,0,0,1-.12-.307V27.8a1.231,1.231,0,0,0-.214-.8.846.846,0,0,0-.675-.256,1.15,1.15,0,0,0-.861.335,1.228,1.228,0,0,0-.324.9V30.04a.406.406,0,0,1-.119.307.448.448,0,0,1-.323.112.459.459,0,0,1-.324-.112.4.4,0,0,1-.125-.307V26.465a.408.408,0,0,1,.128-.306.472.472,0,0,1,.321-.119.428.428,0,0,1,.31.115.4.4,0,0,1,.114.3v.359a1.43,1.43,0,0,1,.586-.588,1.793,1.793,0,0,1,.853-.2C106.194,26.025,106.709,26.6,106.709,27.756Z" transform="translate(-100.62 -24.18)"/><path class="f" d="M107.706,25.826a1.04,1.04,0,0,0-.209.708v.246h.867a.407.407,0,0,1,.285.09.319.319,0,0,1,.1.253.31.31,0,0,1-.1.251.407.407,0,0,1-.285.09H107.5v3.217a.411.411,0,0,1-.128.32.486.486,0,0,1-.324.109.46.46,0,0,1-.317-.109.407.407,0,0,1-.12-.32V27.465h-.527a.407.407,0,0,1-.285-.09.316.316,0,0,1-.1-.251.326.326,0,0,1,.1-.253.407.407,0,0,1,.285-.09h.527v-.115a1.838,1.838,0,0,1,.412-1.268,1.659,1.659,0,0,1,1.169-.515l.228-.019a.729.729,0,0,1,.41.061.284.284,0,0,1,.126.256c0,.2-.125.323-.37.354l-.231.016A.9.9,0,0,0,107.706,25.826Z" transform="translate(-99.034 -24.831)"/><path class="f" d="M108.842,30.207a1.852,1.852,0,0,1-.736-.78,2.509,2.509,0,0,1-.259-1.173,2.539,2.539,0,0,1,.259-1.182,1.827,1.827,0,0,1,.736-.777,2.216,2.216,0,0,1,1.115-.271,2.182,2.182,0,0,1,1.107.271,1.819,1.819,0,0,1,.741.777,2.539,2.539,0,0,1,.257,1.182,2.508,2.508,0,0,1-.257,1.173,1.844,1.844,0,0,1-.741.78,2.214,2.214,0,0,1-1.107.271A2.249,2.249,0,0,1,108.842,30.207Zm2.011-.819a1.773,1.773,0,0,0,.313-1.134,1.747,1.747,0,0,0-.317-1.127,1.218,1.218,0,0,0-1.792,0,1.756,1.756,0,0,0-.318,1.127,1.792,1.792,0,0,0,.312,1.134,1.1,1.1,0,0,0,.9.39A1.081,1.081,0,0,0,110.853,29.388Z" transform="translate(-97.83 -24.18)"/><path class="f" d="M113.776,30.327a.318.318,0,0,1,.083.234.3.3,0,0,1-.136.268.634.634,0,0,1-.4.073l-.234-.016a1.553,1.553,0,0,1-1.065-.435,1.638,1.638,0,0,1-.349-1.13V27.256h-.53c-.256,0-.385-.115-.385-.341a.323.323,0,0,1,.1-.253.4.4,0,0,1,.281-.09h.53v-.9a.406.406,0,0,1,.12-.317.437.437,0,0,1,.32-.117.466.466,0,0,1,.326.117.411.411,0,0,1,.119.317v.9h.872a.4.4,0,0,1,.285.09.33.33,0,0,1,.1.253.32.32,0,0,1-.1.254.419.419,0,0,1-.285.087h-.872v2.127a.877.877,0,0,0,.173.605.721.721,0,0,0,.522.22l.248.019A.435.435,0,0,1,113.776,30.327Z" transform="translate(-96.202 -24.623)"/><path class="f" d="M116.8,29.434a.357.357,0,0,1,.083.243.51.51,0,0,1-.32.433,2.845,2.845,0,0,1-.672.27,2.742,2.742,0,0,1-.7.1,2.162,2.162,0,0,1-1.606-.594,2.193,2.193,0,0,1-.589-1.62,2.513,2.513,0,0,1,.262-1.169,1.905,1.905,0,0,1,.728-.789,2.012,2.012,0,0,1,1.065-.281,1.741,1.741,0,0,1,1.363.555,2.134,2.134,0,0,1,.5,1.492c0,.234-.108.349-.32.349H113.89q.087,1.364,1.307,1.363a1.542,1.542,0,0,0,.561-.089,3.785,3.785,0,0,0,.5-.229,1.593,1.593,0,0,1,.143-.072.459.459,0,0,1,.2-.059A.238.238,0,0,1,116.8,29.434ZM114.259,27a1.51,1.51,0,0,0-.37.914h2.264a1.445,1.445,0,0,0-.3-.92.973.973,0,0,0-.775-.32A1.072,1.072,0,0,0,114.259,27Z" transform="translate(-94.948 -24.18)"/><path class="f" d="M116.97,30.207a1.889,1.889,0,0,1-.73-.773,2.72,2.72,0,0,1,.011-2.339,1.956,1.956,0,0,1,.75-.789,2.159,2.159,0,0,1,1.109-.281,2.46,2.46,0,0,1,.67.1,2.176,2.176,0,0,1,.6.265.545.545,0,0,1,.284.448.4.4,0,0,1-.08.249.25.25,0,0,1-.2.1.319.319,0,0,1-.156-.041,1.512,1.512,0,0,1-.2-.119,2.491,2.491,0,0,0-.412-.214,1.234,1.234,0,0,0-.449-.076,1.128,1.128,0,0,0-.929.405,1.74,1.74,0,0,0-.329,1.124,1.688,1.688,0,0,0,.327,1.112,1.128,1.128,0,0,0,.918.39,1.323,1.323,0,0,0,.469-.076,2.462,2.462,0,0,0,.41-.214,1.468,1.468,0,0,1,.195-.1.4.4,0,0,1,.176-.045.245.245,0,0,1,.2.1.384.384,0,0,1,.076.249.389.389,0,0,1-.065.226.757.757,0,0,1-.221.207,2.136,2.136,0,0,1-.616.27,2.673,2.673,0,0,1-.713.1A2.161,2.161,0,0,1,116.97,30.207Z" transform="translate(-93.281 -24.18)"/><path class="f" d="M122.709,28.417V30.7a.4.4,0,0,1-.123.307.457.457,0,0,1-.324.112.452.452,0,0,1-.324-.112.423.423,0,0,1-.115-.307V28.427a1.152,1.152,0,0,0-.215-.773.843.843,0,0,0-.671-.248,1.145,1.145,0,0,0-.861.335,1.228,1.228,0,0,0-.324.9V30.7a.408.408,0,0,1-.122.307.438.438,0,0,1-.323.112.45.45,0,0,1-.323-.112.4.4,0,0,1-.125-.307v-5.44a.4.4,0,0,1,.128-.307.48.48,0,0,1,.331-.112.437.437,0,0,1,.312.109.382.382,0,0,1,.122.3v2.2a1.419,1.419,0,0,1,.586-.564,1.808,1.808,0,0,1,.844-.192Q122.708,26.687,122.709,28.417Z" transform="translate(-91.671 -24.842)"/></g></g></g></svg>