<svg xmlns="http://www.w3.org/2000/svg" xmlns:xlink="http://www.w3.org/1999/xlink" width="170" height="170" viewBox="0 0 170 170"><defs><style>.a{fill:rgba(229,95,37,0.08);}.b{fill:url(#a);}.c{fill:#f7f1e6;}</style><linearGradient id="a" x1="0.203" y1="1.533" x2="1.016" gradientUnits="objectBoundingBox"><stop offset="0" stop-color="#f8530b"/><stop offset="0.393" stop-color="#f95c17"/><stop offset="1" stop-color="#ff8550"/></linearGradient></defs><g transform="translate(-185 -890)"><circle class="a" cx="85" cy="85" r="85" transform="translate(185 890)"/><g transform="translate(240.777 949.616)"><path class="b" d="M33.8,38.9a1.111,1.111,0,0,1,2.152.279l1.775,20.663,3.324-11.937a1.112,1.112,0,0,1,2.153.047l1.851,8,3.16-13.229a1.111,1.111,0,0,1,2.18.1l2.358,16.753,1.057-3.4a1.11,1.11,0,0,1,1.061-.78H66.749a20.39,20.39,0,0,0,3.4-7.727c.906-5.546.022-10.119-2.634-13.592-2.682-3.505-6.756-5.505-12.466-6.115A15.337,15.337,0,0,0,53.5,27.88a18.183,18.183,0,0,0-11.247,4.03,18.166,18.166,0,0,0-11.238-4.03,15.4,15.4,0,0,0-1.551.081c-5.71.609-9.788,2.609-12.466,6.115-2.655,3.472-3.54,8.046-2.634,13.592a20.56,20.56,0,0,0,3.478,7.849h9.969Z" transform="translate(-12.081 -27.88)"/><path class="b" d="M87.064,167.987a1.113,1.113,0,0,1-2.163-.173l-2.233-15.852-2.9,12.12a1.111,1.111,0,0,1-1.081.85h0a1.111,1.111,0,0,1-1.079-.858l-1.935-8.356-3.808,13.664a1.111,1.111,0,0,1-1.07.811c-.034,0-.069,0-.1,0a1.109,1.109,0,0,1-1-1.008L67.816,147.44l-4.533,12.577a1.111,1.111,0,0,1-1.046.733H53.078c3.7,4.795,8.762,9.54,13.2,13.7,0,0,3.783,3.781,4.918,4.75.857.73,2.707,2.2,4.716,2.2s3.861-1.468,4.712-2.2c1.135-.969,4.918-4.75,4.918-4.75,4.476-4.192,9.59-8.983,13.294-13.819H89.352Z" transform="translate(-45.735 -130.725)"/><path class="c" d="M57.086,119.472h-14.3a1.11,1.11,0,0,0-1.061.78l-1.057,3.4L38.312,106.9a1.111,1.111,0,0,0-2.18-.1l-3.16,13.229-1.851-8a1.112,1.112,0,0,0-2.152-.047L25.646,123.92l-1.775-20.662a1.111,1.111,0,0,0-2.152-.279l-5.983,16.616H1.111a1.107,1.107,0,1,0,0,2.213H16.519a1.11,1.11,0,0,0,1.045-.733L22.093,108.5l1.867,21.741a1.109,1.109,0,0,0,1,1.008c.035,0,.069,0,.1,0a1.11,1.11,0,0,0,1.069-.811l3.8-13.664,1.933,8.356a1.11,1.11,0,0,0,1.078.858h0a1.11,1.11,0,0,0,1.08-.85l2.895-12.12,2.231,15.852a1.111,1.111,0,0,0,2.161.173l2.285-7.359H57.086a1.107,1.107,0,1,0,0-2.213Z" transform="translate(0 -91.873)"/></g></g></svg>