<svg xmlns="http://www.w3.org/2000/svg" width="21.923" height="23.803" viewBox="0 0 21.923 23.803"><defs><style>.a{fill:#343434;}</style></defs><path class="a" d="M3.726,18.269C-1.619,12.121-2.943,5.134.643,2.015l2.008-.788a.912.912,0,0,1,1.062.35L6.263,5.645a1.686,1.686,0,0,1,.138,1.3l-.437,1.2c-.95.826-2.521,2.546,1.356,7.006s5.8,3.146,6.75,2.32l1.245-.266a1.7,1.7,0,0,1,1.265.318l3.673,3.093a.909.909,0,0,1,.2,1.1l-1.058,1.881a5.907,5.907,0,0,1-3.977,1.389C11.873,24.975,7.46,22.564,3.726,18.269ZM14.66,12.461a.545.545,0,0,1-.5-.593A3.287,3.287,0,0,0,11.18,8.312a.547.547,0,1,1,.095-1.09,4.38,4.38,0,0,1,3.978,4.74.545.545,0,0,1-.544.5Zm4.44-.3a.546.546,0,0,1-.5-.592,7.669,7.669,0,0,0-6.963-8.3.547.547,0,0,1,.1-1.09,8.762,8.762,0,0,1,7.958,9.481.546.546,0,0,1-.545.5Z" transform="translate(1.367 -1.172)"/></svg>