<svg xmlns="http://www.w3.org/2000/svg" width="22.699" height="30.087" viewBox="0 0 22.699 30.087"><defs><style>.a{fill:#323232;}</style></defs><path class="a" d="M75.059,0A11.329,11.329,0,0,0,63.722,11.337c0,3.261,1.63,6.216,3.235,8.942a47.545,47.545,0,0,0,7.031,9.35,1.508,1.508,0,0,0,2.165,0,43.733,43.733,0,0,0,6.293-7.9c1.911-3.083,3.974-6.65,3.974-10.394A11.384,11.384,0,0,0,75.059,0Zm0,17.91a6.879,6.879,0,1,1,6.879-6.879A6.882,6.882,0,0,1,75.059,17.91Z" transform="translate(-63.722)"/></svg>