<svg xmlns="http://www.w3.org/2000/svg" width="31.982" height="31.982" viewBox="0 0 31.982 31.982"><defs><style>.a{fill:#e55f25;}.b{fill:rgba(0,0,0,0.1);}</style></defs><g transform="translate(0 16.263) rotate(-45)"><path class="a" d="M67,21.113v9.814c0,2.913-1.149,12.416-11.5,12.416H44V38.69h.006a3.073,3.073,0,0,1,2.551-2.977,2.165,2.165,0,0,1,.334-.033H51.67a.146.146,0,0,1,.041,0c3.557-.3,7.562,0,7.628-8.239V24.129h0a3.079,3.079,0,0,1,2.547-2.981,3.246,3.246,0,0,1,.389-.035H67Z" transform="translate(-44.005 -21.113)"/><path class="b" d="M65.758,21.113H65.68a2.477,2.477,0,0,0-.382.039,3.062,3.062,0,0,0-2.545,2.97l-.006,1.788v4.9c-.066,8.219-7.5,7.922-11.053,8.219a.152.152,0,0,0-.041,0H46.894a2.428,2.428,0,0,0-.338.033,3.069,3.069,0,0,0-2.545,2.97H44V38.646h.006a3.069,3.069,0,0,1,2.545-2.97,2.163,2.163,0,0,1,.338-.033h4.759a.152.152,0,0,1,.041,0c3.549-.3,7.545,0,7.611-8.219v-3.3h0a3.064,3.064,0,0,1,2.545-2.97,2.5,2.5,0,0,1,.382-.039h3.521Z" transform="translate(-44.005 -21.113)"/></g></svg>