<svg xmlns="http://www.w3.org/2000/svg" width="21.923" height="23.802" viewBox="0 0 21.923 23.802"><defs><style>.a{fill:#41cb12;}</style></defs><path class="a" d="M3.726,18.268C-1.619,12.121-2.943,5.133.643,2.015l2.008-.788a.911.911,0,0,1,1.061.35L6.264,5.645a1.691,1.691,0,0,1,.137,1.3l-.437,1.2c-.951.826-2.521,2.545,1.356,7.006s5.8,3.145,6.75,2.32l1.245-.267a1.7,1.7,0,0,1,1.265.318l3.673,3.093a.912.912,0,0,1,.2,1.1l-1.059,1.88a5.906,5.906,0,0,1-3.978,1.389C11.873,24.974,7.46,22.564,3.726,18.268ZM14.66,12.461a.545.545,0,0,1-.5-.593A3.286,3.286,0,0,0,11.18,8.312a.547.547,0,1,1,.094-1.09,4.381,4.381,0,0,1,3.979,4.74.546.546,0,0,1-.544.5Zm4.439-.3a.546.546,0,0,1-.5-.592,7.669,7.669,0,0,0-6.963-8.3.547.547,0,1,1,.1-1.089,8.761,8.761,0,0,1,7.958,9.481.546.546,0,0,1-.545.5Z" transform="translate(1.367 -1.172)"/></svg>